<?xml version="1.0" encoding="UTF-8"?>
<svg width="579px" height="292px" viewBox="0 0 579 292" version="1.1" xmlns="http://www.w3.org/2000/svg" xmlns:xlink="http://www.w3.org/1999/xlink">
    <title>gtots_principal_hor_margem</title>
    <g id="gtots_principal_hor_margem" stroke="none" stroke-width="1" fill="none" fill-rule="evenodd">
        <g id="gtots" transform="translate(46, 46)" fill-rule="nonzero">
            <path d="M141.140421,23.884625 C172.869339,55.6468493 172.919033,107.214121 141.492547,139.699583 L140.530595,140.67811 L81.27091,200 L65.0385759,183.750627 L124.29826,124.428737 C147.625391,101.07712 147.822048,63.4135318 124.737506,40.304758 C101.652964,17.1959843 64.0288698,17.3928475 40.7017395,40.7444643 C17.6078806,63.862565 17.1841987,101.007829 39.5769423,124.170842 L40.2624943,124.868443 L55.2782236,139.898293 L65.4013479,129.763 L50.3856727,114.732254 C33.1282968,97.4567625 33.2753121,69.3004878 50.7140405,51.8434538 C68.152769,34.3864199 96.2795189,34.2392503 113.536895,51.5147414 C130.621697,68.6174775 130.648455,96.3844698 113.726501,113.876642 L113.208527,114.403541 L55.1068228,172.56862 L23.8595795,141.288576 C-8.18983296,109.205521 -7.91680461,56.9152969 24.4694054,24.495091 C56.8556153,-7.92511492 109.091008,-8.19842986 141.140421,23.884625 Z M66.9463747,68.0928272 C58.65881,76.3890913 58.4986382,89.7141767 66.518238,98.0365739 L66.7885876,98.3121205 L81.8039106,113.343205 L96.9761929,98.1541678 C105.355842,89.7657229 105.426485,76.2360844 97.13398,67.9348744 C88.8414747,59.6336644 75.3260234,59.7043823 66.9463747,68.0928272 Z" id="Shape" fill="#063DA2"></path>
            <path d="M216.160705,120 C210.484764,120 205.537418,118.900758 201.318667,116.702274 C197.099916,114.503789 193.82545,111.273932 191.49527,107.012703 C189.16509,102.751473 188,97.5085604 188,91.2839654 L188,69.7160346 C188,60.4288322 190.720348,53.3210259 196.161045,48.3926155 C201.601742,43.4642052 209.081723,41 218.600987,41 C225.352673,41 231.05629,42.0883346 235.711837,44.2650037 C240.367384,46.4416728 243.792562,49.4388347 245.987372,53.2564893 C248.182181,57.074144 248.934842,61.4886859 248.245354,66.5001151 C248.141871,67.3836294 247.664765,67.8253866 246.814035,67.8253866 L235.61437,67.7835742 C234.713103,67.7835742 234.313007,67.315154 234.414084,66.3783137 C234.564496,63.5653688 234.085584,61.1787287 232.97735,59.2183933 C231.869116,57.258058 230.147803,55.7585681 227.813411,54.7199236 C225.479019,53.6812791 222.498458,53.1619569 218.871728,53.1619569 C213.282424,53.1619569 209.051941,54.5447963 206.180278,57.310475 C203.308616,60.0761537 201.872784,64.3204161 201.872784,70.0432622 L201.872784,90.9567378 C201.872784,96.730486 203.279135,100.987474 206.091836,103.727702 C208.904538,106.467929 213.095312,107.838043 218.66416,107.838043 C224.093425,107.838043 228.228848,106.564583 231.070429,104.017662 C233.912009,101.470741 235.332799,97.7903397 235.332799,92.9764589 L235.332799,89.2424291 L219.680342,89.2424291 C218.776668,89.2424291 218.324831,88.7873405 218.324831,87.8771631 L218.324831,80.1400497 C218.324831,79.2286604 218.776668,78.7729658 219.680342,78.7729658 L247.196683,78.7729658 C248.073885,78.7729658 248.512486,79.2286604 248.512486,80.1400497 L248.512486,101.524369 C248.512486,104.116739 248.570244,106.774251 248.68576,109.496905 C248.801277,112.219559 249.052765,114.761329 249.440226,117.122216 C249.543709,117.563367 249.472715,117.92059 249.227243,118.193886 C248.981771,118.467181 248.639433,118.603829 248.200231,118.603829 L239.188155,118.603829 C238.827167,118.603829 238.524538,118.505964 238.28027,118.310233 C238.036001,118.114503 237.862125,117.821513 237.758641,117.431264 C237.576944,116.476244 237.429239,115.344582 237.315528,114.036278 C237.201817,112.727974 237.093219,111.443 236.989736,110.181356 L236.834511,110.181356 C235.531343,112.21865 233.889447,113.975074 231.908824,115.450628 C229.928201,116.926182 227.631112,118.053299 225.017556,118.831979 C222.404,119.61066 219.451716,120 216.160705,120 Z M274.554482,118.603829 C273.67728,118.603829 273.238679,118.14874 273.238679,117.238563 L273.238679,54.709016 L253.288655,54.709016 C252.383777,54.709016 251.931338,54.2672588 251.931338,53.3837445 L251.931338,43.7614369 C251.931338,42.8512595 252.383777,42.3961708 253.288655,42.3961708 L307.059682,42.3961708 C307.936884,42.3961708 308.375485,42.8512595 308.375485,43.7614369 L308.375485,53.3837445 C308.375485,54.2672588 307.936884,54.709016 307.059682,54.709016 L287.109658,54.709016 L287.109658,117.238563 C287.109658,118.14874 286.657821,118.603829 285.754147,118.603829 L274.554482,118.603829 Z M340.982591,120 C330.848443,120 323.23249,117.533977 318.134732,112.601931 C313.036974,107.669884 310.488095,100.577228 310.488095,91.3239599 L310.488095,69.6760401 C310.488095,60.3452074 313.036974,53.2331592 318.134732,48.3398955 C323.23249,43.4466318 330.848443,41 340.982591,41 C351.116738,41 358.732691,43.4466318 363.830449,48.3398955 C368.928207,53.2331592 371.477086,60.3452074 371.477086,69.6760401 L371.477086,91.3239599 C371.477086,100.577228 368.928207,107.669884 363.830449,112.601931 C358.732691,117.533977 351.116738,120 340.982591,120 Z M340.982591,107.758054 C346.5009,107.758054 350.650762,106.302801 353.432178,103.392293 C356.213594,100.481786 357.604302,96.2450985 357.604302,90.6822303 L357.604302,70.3177697 C357.604302,64.7052114 356.213594,60.4561012 353.432178,57.5704391 C350.650762,54.6847769 346.5009,53.2419459 340.982591,53.2419459 C335.541292,53.2419459 331.410682,54.6847769 328.590761,57.5704391 C325.77084,60.4561012 324.36088,64.7052114 324.36088,70.3177697 L324.36088,90.6822303 C324.36088,96.2450985 325.77084,100.481786 328.590761,103.392293 C331.410682,106.302801 335.541292,107.758054 340.982591,107.758054 Z M396.212007,118.603829 C395.334806,118.603829 394.896205,118.14874 394.896205,117.238563 L394.896205,54.709016 L374.946181,54.709016 C374.041303,54.709016 373.588864,54.2672588 373.588864,53.3837445 L373.588864,43.7614369 C373.588864,42.8512595 374.041303,42.3961708 374.946181,42.3961708 L428.717208,42.3961708 C429.59441,42.3961708 430.033011,42.8512595 430.033011,43.7614369 L430.033011,53.3837445 C430.033011,54.2672588 429.59441,54.709016 428.717208,54.709016 L408.767184,54.709016 L408.767184,117.238563 C408.767184,118.14874 408.315347,118.603829 407.411673,118.603829 L396.212007,118.603829 Z M458.533182,120 C448.756413,120 441.624786,118.009366 437.138302,114.028097 C432.651818,110.046829 430.706391,104.486991 431.302022,97.3485825 C431.405506,96.0336125 431.921117,95.3761276 432.848858,95.3761276 L443.698364,95.3761276 C444.701912,95.3761276 445.190449,95.9560475 445.163977,97.1158873 C445.111032,100.877792 446.243332,103.63832 448.560878,105.397471 C450.878423,107.156622 454.431752,108.036198 459.220865,108.036198 C463.886039,108.036198 467.369878,107.276302 469.672382,105.756512 C471.974886,104.236722 473.126139,101.904317 473.126139,98.7592968 C473.126139,97.2273871 472.852389,95.8990857 472.30489,94.7743925 C471.757391,93.6496993 470.833862,92.6386268 469.534304,91.741175 C468.234746,90.8437232 466.463496,89.9326368 464.220555,89.0079161 L447.440009,81.8307253 C443.709795,80.2224626 440.734048,78.4596757 438.512766,76.5423647 C436.291484,74.6250537 434.712761,72.4295993 433.776598,69.9560015 C432.840435,67.4824037 432.372353,64.6391599 432.372353,61.4262703 C432.449364,54.8538445 434.660117,49.8190852 439.004612,46.3219924 C443.349108,42.8248995 449.766579,41.0763531 458.257026,41.0763531 C464.286736,41.0763531 469.404047,41.9107833 473.608961,43.5796438 C477.813874,45.2485042 480.949359,47.7018018 483.015416,50.9395365 C485.081473,54.1772713 485.8949,58.2073208 485.455697,63.0296852 C485.329351,64.4222202 484.852245,65.1184877 484.024378,65.1184877 L473.061161,65.1184877 C472.621958,65.1184877 472.286239,64.9566918 472.054003,64.6331001 C471.821767,64.3095085 471.744155,63.7750368 471.821165,63.0296852 C472.075061,59.8810291 470.987282,57.4019775 468.55783,55.5925304 C466.128378,53.7830833 462.686354,52.8783597 458.231757,52.8783597 C454.286154,52.8783597 451.314317,53.5697794 449.316246,54.9526187 C447.318175,56.3354581 446.293871,58.4472877 446.243332,61.2881075 C446.243332,62.719425 446.524001,63.9916736 447.085338,65.1048532 C447.646675,66.2180328 448.589456,67.2484966 449.913682,68.1962445 C451.237908,69.1439924 453.058793,70.1050718 455.376339,71.0794827 L471.967366,78.1766845 C475.696376,79.7582842 478.665806,81.4950141 480.875657,83.3868741 C483.085508,85.278734 484.665133,87.4681287 485.614532,89.955058 C486.563932,92.4419873 487.025395,95.3937009 486.998923,98.8101988 C486.971247,105.594716 484.689199,110.822479 480.152778,114.493488 C475.616357,118.164496 468.409825,120 458.533182,120 Z" fill="#102D5B"></path>
            <path d="M201.257407,158.590386 C201.021163,158.590386 200.903041,158.471477 200.903041,158.233658 L200.903041,139.307456 L194.858086,139.307456 C194.619362,139.307456 194.5,139.189782 194.5,138.954433 L194.5,136.760075 C194.5,136.522256 194.619362,136.403346 194.858086,136.403346 L210.199988,136.403346 C210.436232,136.403346 210.554354,136.522256 210.554354,136.760075 L210.554354,138.954433 C210.554354,139.189782 210.436232,139.307456 210.199988,139.307456 L204.155033,139.307456 L204.155033,158.233658 C204.155033,158.471477 204.035671,158.590386 203.796947,158.590386 L201.257407,158.590386 Z M222.555365,158.590386 C222.316995,158.590386 222.197811,158.471477 222.197811,158.233658 L222.197811,136.760075 C222.197811,136.522256 222.316995,136.403346 222.555365,136.403346 L229.289927,136.403346 C232.054023,136.403346 234.094421,136.926266 235.411121,137.972106 C236.727821,139.017945 237.386171,140.576119 237.386171,142.646627 C237.386171,144.253494 237.00524,145.592726 236.243378,146.664323 C235.481516,147.73592 234.387779,148.476018 232.962165,148.884615 L232.962165,148.922193 L238.583155,158.162735 C238.656118,158.280233 238.668692,158.380883 238.620876,158.464684 C238.573061,158.548486 238.477607,158.590386 238.334514,158.590386 L235.368884,158.590386 C235.177976,158.590386 235.034883,158.50782 234.939606,158.342687 L229.518911,149.321793 L225.449272,149.321793 L225.449272,158.233658 C225.449272,158.471477 225.330087,158.590386 225.091717,158.590386 L222.555365,158.590386 Z M225.449272,146.740009 L229.026941,146.740009 C230.82835,146.740009 232.129908,146.429768 232.931617,145.809286 C233.733325,145.188804 234.134179,144.194039 234.134179,142.824991 C234.134179,141.496168 233.76166,140.551243 233.016622,139.990216 C232.271584,139.429189 231.005976,139.148675 229.219798,139.148675 L225.449272,139.148675 L225.449272,146.740009 Z M247.910379,158.590386 C247.646862,158.590386 247.551408,158.459127 247.624017,158.196609 L255.081126,136.688624 C255.15161,136.498439 255.29364,136.403346 255.507216,136.403346 L258.934532,136.403346 C259.148109,136.403346 259.290139,136.498439 259.360622,136.688624 L266.909112,158.196609 C266.981721,158.459127 266.88733,158.590386 266.625938,158.590386 L263.850508,158.590386 C263.636931,158.590386 263.496141,158.495294 263.428136,158.305109 L258.546163,143.461704 C258.319482,142.765184 258.094572,142.069281 257.871432,141.373995 C257.648293,140.678709 257.41683,139.984041 257.177043,139.28999 L257.136134,139.28999 C256.916537,139.966046 256.695168,140.647306 256.472029,141.33377 C256.248889,142.020235 256.023979,142.701495 255.797297,143.37755 L250.987048,158.301404 C250.919043,158.494059 250.777013,158.590386 250.560958,158.590386 L247.910379,158.590386 Z M251.953454,153.571839 L252.688752,150.815395 L261.640364,150.815395 L262.413383,153.571839 L251.953454,153.571839 Z M277.80727,158.590386 C277.5689,158.590386 277.449715,158.471477 277.449715,158.233658 L277.449715,136.760075 C277.449715,136.522256 277.5689,136.403346 277.80727,136.403346 L290.184073,136.403346 C290.420318,136.403346 290.53844,136.522256 290.53844,136.760075 L290.53844,138.954433 C290.53844,139.189782 290.420318,139.307456 290.184073,139.307456 L280.701176,139.307456 L280.701176,146.271075 L288.891989,146.271075 C289.128234,146.271075 289.246356,146.389984 289.246356,146.627803 L289.246356,148.717365 C289.246356,148.952714 289.128234,149.070389 288.891989,149.070389 L280.701176,149.070389 L280.701176,158.233658 C280.701176,158.471477 280.583054,158.590386 280.34681,158.590386 L277.80727,158.590386 Z M302.818603,158.590386 C302.580234,158.590386 302.461049,158.471477 302.461049,158.233658 L302.461049,136.760075 C302.461049,136.522256 302.580234,136.403346 302.818603,136.403346 L315.195406,136.403346 C315.431651,136.403346 315.549773,136.522256 315.549773,136.760075 L315.549773,138.954433 C315.549773,139.189782 315.431651,139.307456 315.195406,139.307456 L305.71251,139.307456 L305.71251,146.271075 L313.903323,146.271075 C314.139567,146.271075 314.257689,146.389984 314.257689,146.627803 L314.257689,148.717365 C314.257689,148.952714 314.139567,149.070389 313.903323,149.070389 L305.71251,149.070389 L305.71251,158.233658 C305.71251,158.471477 305.594388,158.590386 305.358143,158.590386 L302.818603,158.590386 Z M327.829937,158.590386 C327.591567,158.590386 327.472382,158.471477 327.472382,158.233658 L327.472382,136.760075 C327.472382,136.522256 327.591567,136.403346 327.829937,136.403346 L330.366289,136.403346 C330.604658,136.403346 330.723843,136.522256 330.723843,136.760075 L330.723843,158.233658 C330.723843,158.471477 330.604658,158.590386 330.366289,158.590386 L327.829937,158.590386 Z M352.168525,158.996866 C349.369718,158.996866 347.244049,158.303345 345.791517,156.916302 C344.338985,155.529259 343.61272,153.528968 343.61272,150.915428 L343.61272,144.08889 C343.61272,141.468293 344.34908,139.464473 345.8218,138.077431 C347.294521,136.690388 349.42019,135.996866 352.198808,135.996866 C354.004113,135.996866 355.581142,136.301462 356.929896,136.910653 C358.27865,137.519844 359.289773,138.391024 359.963265,139.524193 C360.636757,140.657362 360.860162,142.010267 360.63348,143.582907 C360.610812,143.697936 360.575039,143.805731 360.526161,143.906292 C360.477283,144.006853 360.3836,144.057134 360.245111,144.057134 L357.705572,144.057134 C357.449138,144.057134 357.34111,143.93699 357.381488,143.696701 C357.442409,142.151582 357.034736,140.955959 356.158471,140.109831 C355.282206,139.263703 353.976132,138.840639 352.240248,138.840639 C350.518532,138.840639 349.192092,139.287521 348.260927,140.181283 C347.329763,141.075045 346.864181,142.375817 346.864181,144.083598 L346.864181,150.910135 C346.864181,152.617916 347.329763,153.918688 348.260927,154.81245 C349.192092,155.706212 350.518532,156.153093 352.240248,156.153093 C353.985695,156.153093 355.319484,155.722531 356.241617,154.861408 C357.16375,154.000284 357.543707,152.812158 357.381488,151.297032 C357.34111,151.056743 357.449138,150.936599 357.705572,150.936599 L360.214828,150.936599 C360.448593,150.936599 360.588144,151.094674 360.63348,151.410825 C360.774094,152.945358 360.507123,154.279298 359.832569,155.412643 C359.158015,156.545989 358.162122,157.426696 356.844891,158.054764 C355.527659,158.682832 353.968871,158.996866 352.168525,158.996866 Z M394.916409,158.996866 C392.148416,158.996866 390.122009,158.415991 388.837186,157.254242 C387.552363,156.092492 386.983977,154.54358 387.132028,152.607507 C387.156822,152.208084 387.297435,152.008372 387.553868,152.008372 L390.014778,152.008372 C390.293879,152.008372 390.432368,152.185502 390.430242,152.53976 C390.425284,153.831534 390.810554,154.763581 391.586052,155.335899 C392.36155,155.908217 393.547466,156.194376 395.143798,156.194376 C396.68169,156.194376 397.841661,155.926654 398.623712,155.391208 C399.405762,154.855762 399.796788,154.040067 399.796788,152.944123 C399.796788,152.39968 399.70523,151.932245 399.522114,151.54182 C399.338998,151.151394 399.031472,150.806486 398.599538,150.507095 C398.167604,150.207704 397.582925,149.90699 396.845503,149.604953 L391.865242,147.531798 C390.805861,147.090739 389.951909,146.600722 389.303388,146.061748 C388.654867,145.522774 388.19017,144.904144 387.909298,144.205859 C387.628425,143.507575 387.487989,142.709787 387.487989,141.812496 C387.510657,139.926174 388.14625,138.49035 389.394769,137.505024 C390.643288,136.519698 392.467718,136.027035 394.868062,136.027035 C396.527794,136.027035 397.955976,136.265912 399.152605,136.743668 C400.349235,137.221423 401.25295,137.917944 401.86375,138.83323 C402.47455,139.748516 402.720978,140.875333 402.603032,142.213683 C402.559821,142.635689 402.430365,142.846691 402.214663,142.846691 L399.719752,142.846691 C399.601452,142.846691 399.512196,142.80091 399.451984,142.709346 C399.391772,142.617782 399.373,142.452561 399.395668,142.213683 C399.481736,141.133265 399.112228,140.29684 398.287143,139.70441 C397.462058,139.111979 396.297925,138.815764 394.794744,138.815764 C393.463346,138.815764 392.459749,139.049878 391.783955,139.518106 C391.108161,139.986335 390.759993,140.707731 390.73945,141.682295 C390.73945,142.186161 390.831628,142.628896 391.015984,143.010501 C391.200339,143.392105 391.513531,143.742747 391.95556,144.062427 C392.397589,144.382107 393.006441,144.703021 393.782116,145.025171 L398.698091,147.091445 C399.757473,147.530034 400.606908,148.013699 401.246397,148.542441 C401.885887,149.071183 402.346688,149.685314 402.6288,150.384834 C402.910912,151.084353 403.050728,151.92316 403.048281,152.901252 C403.046124,154.822153 402.392467,156.318314 401.087278,157.389735 C399.782089,158.461156 397.725133,158.996866 394.916409,158.996866 Z M412.860606,158.590386 C412.597089,158.590386 412.501635,158.459127 412.574244,158.196609 L420.031353,136.688624 C420.101837,136.498439 420.243867,136.403346 420.457443,136.403346 L423.884759,136.403346 C424.098335,136.403346 424.240366,136.498439 424.310849,136.688624 L431.859339,158.196609 C431.931948,158.459127 431.837556,158.590386 431.576164,158.590386 L428.800734,158.590386 C428.587158,158.590386 428.446368,158.495294 428.378363,158.305109 L423.49639,143.461704 C423.269709,142.765184 423.044798,142.069281 422.821659,141.373995 C422.598519,140.678709 422.367056,139.984041 422.12727,139.28999 L422.086361,139.28999 C421.866764,139.966046 421.645395,140.647306 421.422256,141.33377 C421.199116,142.020235 420.974206,142.701495 420.747524,143.37755 L415.937275,158.301404 C415.86927,158.494059 415.72724,158.590386 415.511184,158.590386 L412.860606,158.590386 Z M416.903681,153.571839 L417.638979,150.815395 L426.590591,150.815395 L427.36361,153.571839 L416.903681,153.571839 Z M442.757497,158.590386 C442.519127,158.590386 442.399942,158.471477 442.399942,158.233658 L442.399942,136.760075 C442.399942,136.522256 442.519127,136.403346 442.757497,136.403346 L455.1343,136.403346 C455.370544,136.403346 455.488667,136.522256 455.488667,136.760075 L455.488667,138.954433 C455.488667,139.189782 455.370544,139.307456 455.1343,139.307456 L445.651403,139.307456 L445.651403,146.271075 L453.842216,146.271075 C454.078461,146.271075 454.196583,146.389984 454.196583,146.627803 L454.196583,148.717365 C454.196583,148.952714 454.078461,149.070389 453.842216,149.070389 L445.651403,149.070389 L445.651403,158.233658 C445.651403,158.471477 445.533281,158.590386 445.297036,158.590386 L442.757497,158.590386 Z M467.76883,158.590386 C467.53046,158.590386 467.411276,158.471477 467.411276,158.233658 L467.411276,136.760075 C467.411276,136.522256 467.53046,136.403346 467.76883,136.403346 L480.145633,136.403346 C480.381878,136.403346 480.5,136.522256 480.5,136.760075 L480.5,138.954433 C480.5,139.189782 480.381878,139.307456 480.145633,139.307456 L470.662737,139.307456 L470.662737,145.936046 L479.32958,145.936046 C479.565825,145.936046 479.683947,146.054956 479.683947,146.292775 L479.683947,148.360637 C479.683947,148.598456 479.565825,148.717365 479.32958,148.717365 L470.662737,148.717365 L470.662737,155.686276 L480.145633,155.686276 C480.381878,155.686276 480.5,155.803951 480.5,156.0393 L480.5,158.233658 C480.5,158.471477 480.381878,158.590386 480.145633,158.590386 L467.76883,158.590386 Z" id="traffic-safe" fill="#102D5B"></path>
        </g>
    </g>
</svg>